<svg xmlns="http://www.w3.org/2000/svg" viewBox="0 0 640 640" role="img" aria-label="Tempo male">
  <rect width="640" height="640" rx="96" fill="#FFFFFF"/>
  <!-- soft plate -->
  <circle cx="320" cy="340" r="250" fill="#F7F4F2"/>
  <path d="M120 520c40-80 120-120 200-120s160 40 200 120v120H120z" fill="#E8B992"/>
       <path d="M160 500c60-40 140-40 200 0" fill="none" stroke="#231813" stroke-width="14" stroke-linecap="round"/>
  <circle cx="320" cy="300" r="118" fill="#E8B992"/>
  <path d="M205 290c20-100 80-140 115-140s95 40 115 140c-35-40-75-55-115-55s-80 15-115 55z" fill="#1A1A1A"/>
  
    <circle cx="280" cy="295" r="10" fill="#231813"/>
    <circle cx="360" cy="295" r="10" fill="#231813"/>
    <path d="M295 345c15 18 35 18 50 0" fill="none" stroke="#231813" stroke-width="8" stroke-linecap="round"/>
  
  <text x="320" y="560" text-anchor="middle" font-family="DM Sans,system-ui,sans-serif" font-size="36" font-weight="700" fill="#D83900">#2</text>
</svg>
