<svg xmlns="http://www.w3.org/2000/svg" viewBox="0 0 640 640" role="img" aria-label="Pulse male">
  <rect width="640" height="640" rx="96" fill="#FFFFFF"/>
  <!-- soft plate -->
  <circle cx="320" cy="340" r="250" fill="#F7F4F2"/>
  <path d="M120 520c40-80 120-120 200-120s160 40 200 120v120H120z" fill="#F3D2B5"/>
       <path d="M160 500c60-40 140-40 200 0" fill="none" stroke="#231813" stroke-width="14" stroke-linecap="round"/>
  <circle cx="320" cy="300" r="118" fill="#F3D2B5"/>
  <path d="M210 280c10-90 70-130 110-130s100 40 110 130c-30-50-70-70-110-70s-80 20-110 70z" fill="#1A1A1A"/>
  
    <circle cx="280" cy="295" r="10" fill="#231813"/>
    <circle cx="360" cy="295" r="10" fill="#231813"/>
    <path d="M295 345c15 18 35 18 50 0" fill="none" stroke="#231813" stroke-width="8" stroke-linecap="round"/>
  
  <circle cx="320" cy="550" r="18" fill="#D83900"/>
</svg>
